<svg width="57" height="22" viewBox="0 0 57 22" fill="none" xmlns="http://www.w3.org/2000/svg">
<path d="M0.816 5.256C0.816 4.736 0.912 4.248 1.104 3.792C1.304 3.328 1.576 2.928 1.92 2.592C2.264 2.248 2.668 1.976 3.132 1.776C3.596 1.576 4.092 1.476 4.62 1.476C5.004 1.476 5.372 1.536 5.724 1.656C6.076 1.768 6.4 1.928 6.696 2.136C7 2.344 7.272 2.592 7.512 2.88C7.76 3.168 7.964 3.484 8.124 3.828L7.2 4.44C7.08 4.176 6.928 3.932 6.744 3.708C6.568 3.476 6.368 3.28 6.144 3.12C5.92 2.952 5.68 2.824 5.424 2.736C5.168 2.64 4.904 2.592 4.632 2.592C4.264 2.592 3.916 2.664 3.588 2.808C3.26 2.952 2.972 3.148 2.724 3.396C2.484 3.644 2.292 3.928 2.148 4.248C2.004 4.568 1.932 4.908 1.932 5.268C1.932 5.628 2.004 5.968 2.148 6.288C2.292 6.608 2.484 6.888 2.724 7.128C2.972 7.368 3.256 7.56 3.576 7.704C3.904 7.848 4.252 7.92 4.62 7.92C4.868 7.92 5.112 7.884 5.352 7.812C5.592 7.732 5.82 7.624 6.036 7.488C6.252 7.344 6.452 7.176 6.636 6.984C6.82 6.784 6.976 6.568 7.104 6.336L7.92 7.152C7.56 7.72 7.096 8.176 6.528 8.52C5.96 8.864 5.324 9.036 4.62 9.036C4.092 9.036 3.596 8.936 3.132 8.736C2.668 8.536 2.264 8.268 1.92 7.932C1.576 7.588 1.304 7.188 1.104 6.732C0.912 6.268 0.816 5.776 0.816 5.256ZM14.7944 9L12.7184 4.92H14.0744C14.2264 4.92 14.3584 4.884 14.4704 4.812C14.5824 4.74 14.6744 4.648 14.7464 4.536C14.8184 4.424 14.8704 4.3 14.9024 4.164C14.9344 4.028 14.9504 3.9 14.9504 3.78C14.9504 3.652 14.9264 3.52 14.8784 3.384C14.8384 3.24 14.7784 3.108 14.6984 2.988C14.6264 2.868 14.5344 2.772 14.4224 2.7C14.3104 2.62 14.1824 2.58 14.0384 2.58H10.6664V9H9.53841V1.512H14.1944C14.4584 1.512 14.7064 1.572 14.9384 1.692C15.1704 1.804 15.3744 1.964 15.5504 2.172C15.7264 2.372 15.8664 2.612 15.9704 2.892C16.0744 3.172 16.1264 3.472 16.1264 3.792C16.1264 4.056 16.0824 4.312 15.9944 4.56C15.9144 4.8 15.7984 5.02 15.6464 5.22C15.5024 5.42 15.3304 5.588 15.1304 5.724C14.9304 5.852 14.7144 5.936 14.4824 5.976L16.0184 9H14.7944ZM17.5655 9H23.2655V7.932H18.6935V2.58H23.2655V1.512H17.5655V9ZM23.1815 4.92H19.4615V5.988H23.1815V4.92ZM24.3759 9L28.4439 0.9L32.4759 9H26.7279L27.4599 7.932H30.6399L28.4439 3.408L25.6719 9H24.3759ZM31.8501 1.512H38.2701V2.58H35.6181V9H34.4781V2.58H31.8501V1.512ZM39.901 5.28C39.901 5.536 39.941 5.788 40.021 6.036C40.109 6.284 40.229 6.52 40.381 6.744C40.533 6.968 40.713 7.172 40.921 7.356C41.137 7.532 41.377 7.68 41.641 7.8L40.921 8.7C40.601 8.532 40.309 8.328 40.045 8.088C39.781 7.84 39.557 7.568 39.373 7.272C39.189 6.976 39.045 6.66 38.941 6.324C38.837 5.98 38.785 5.628 38.785 5.268C38.785 4.748 38.881 4.26 39.073 3.804C39.273 3.34 39.541 2.94 39.877 2.604C40.221 2.26 40.625 1.988 41.089 1.788C41.553 1.588 42.053 1.488 42.589 1.488C43.117 1.488 43.613 1.588 44.077 1.788C44.541 1.988 44.941 2.26 45.277 2.604C45.621 2.94 45.893 3.34 46.093 3.804C46.293 4.26 46.393 4.748 46.393 5.268C46.393 5.628 46.337 5.98 46.225 6.324C46.121 6.668 45.969 6.988 45.769 7.284C45.569 7.58 45.333 7.848 45.061 8.088C44.789 8.328 44.485 8.532 44.149 8.7L43.537 7.776C43.785 7.656 44.017 7.508 44.233 7.332C44.449 7.148 44.633 6.948 44.785 6.732C44.945 6.516 45.069 6.284 45.157 6.036C45.245 5.788 45.289 5.536 45.289 5.28C45.289 4.92 45.217 4.58 45.073 4.26C44.929 3.94 44.733 3.656 44.485 3.408C44.237 3.16 43.949 2.964 43.621 2.82C43.301 2.676 42.961 2.604 42.601 2.604C42.233 2.604 41.885 2.676 41.557 2.82C41.229 2.964 40.941 3.16 40.693 3.408C40.453 3.656 40.261 3.94 40.117 4.26C39.973 4.58 39.901 4.92 39.901 5.28ZM53.0444 9L50.9684 4.92H52.3244C52.4764 4.92 52.6084 4.884 52.7204 4.812C52.8324 4.74 52.9244 4.648 52.9964 4.536C53.0684 4.424 53.1204 4.3 53.1524 4.164C53.1844 4.028 53.2004 3.9 53.2004 3.78C53.2004 3.652 53.1764 3.52 53.1284 3.384C53.0884 3.24 53.0284 3.108 52.9484 2.988C52.8764 2.868 52.7844 2.772 52.6724 2.7C52.5604 2.62 52.4324 2.58 52.2884 2.58H48.9164V9H47.7884V1.512H52.4444C52.7084 1.512 52.9564 1.572 53.1884 1.692C53.4204 1.804 53.6244 1.964 53.8004 2.172C53.9764 2.372 54.1164 2.612 54.2204 2.892C54.3244 3.172 54.3764 3.472 54.3764 3.792C54.3764 4.056 54.3324 4.312 54.2444 4.56C54.1644 4.8 54.0484 5.02 53.8964 5.22C53.7524 5.42 53.5804 5.588 53.3804 5.724C53.1804 5.852 52.9644 5.936 52.7324 5.976L54.2684 9H53.0444ZM0.816 17.256C0.816 16.736 0.912 16.248 1.104 15.792C1.304 15.328 1.576 14.928 1.92 14.592C2.264 14.248 2.668 13.976 3.132 13.776C3.596 13.576 4.092 13.476 4.62 13.476C5.004 13.476 5.372 13.536 5.724 13.656C6.076 13.768 6.4 13.928 6.696 14.136C7 14.344 7.272 14.592 7.512 14.88C7.76 15.168 7.964 15.484 8.124 15.828L7.2 16.44C7.08 16.176 6.928 15.932 6.744 15.708C6.568 15.476 6.368 15.28 6.144 15.12C5.92 14.952 5.68 14.824 5.424 14.736C5.168 14.64 4.904 14.592 4.632 14.592C4.264 14.592 3.916 14.664 3.588 14.808C3.26 14.952 2.972 15.148 2.724 15.396C2.484 15.644 2.292 15.928 2.148 16.248C2.004 16.568 1.932 16.908 1.932 17.268C1.932 17.628 2.004 17.968 2.148 18.288C2.292 18.608 2.484 18.888 2.724 19.128C2.972 19.368 3.256 19.56 3.576 19.704C3.904 19.848 4.252 19.92 4.62 19.92C4.868 19.92 5.112 19.884 5.352 19.812C5.592 19.732 5.82 19.624 6.036 19.488C6.252 19.344 6.452 19.176 6.636 18.984C6.82 18.784 6.976 18.568 7.104 18.336L7.92 19.152C7.56 19.72 7.096 20.176 6.528 20.52C5.96 20.864 5.324 21.036 4.62 21.036C4.092 21.036 3.596 20.936 3.132 20.736C2.668 20.536 2.264 20.268 1.92 19.932C1.576 19.588 1.304 19.188 1.104 18.732C0.912 18.268 0.816 17.776 0.816 17.256ZM10.3463 17.28C10.3463 17.536 10.3863 17.788 10.4663 18.036C10.5543 18.284 10.6743 18.52 10.8263 18.744C10.9783 18.968 11.1583 19.172 11.3663 19.356C11.5823 19.532 11.8223 19.68 12.0863 19.8L11.3663 20.7C11.0463 20.532 10.7543 20.328 10.4903 20.088C10.2263 19.84 10.0023 19.568 9.81834 19.272C9.63434 18.976 9.49034 18.66 9.38634 18.324C9.28234 17.98 9.23034 17.628 9.23034 17.268C9.23034 16.748 9.32634 16.26 9.51834 15.804C9.71834 15.34 9.98634 14.94 10.3223 14.604C10.6663 14.26 11.0703 13.988 11.5343 13.788C11.9983 13.588 12.4983 13.488 13.0343 13.488C13.5623 13.488 14.0583 13.588 14.5223 13.788C14.9863 13.988 15.3863 14.26 15.7223 14.604C16.0663 14.94 16.3383 15.34 16.5383 15.804C16.7383 16.26 16.8383 16.748 16.8383 17.268C16.8383 17.628 16.7823 17.98 16.6703 18.324C16.5663 18.668 16.4143 18.988 16.2143 19.284C16.0143 19.58 15.7783 19.848 15.5063 20.088C15.2343 20.328 14.9303 20.532 14.5943 20.7L13.9823 19.776C14.2303 19.656 14.4623 19.508 14.6783 19.332C14.8943 19.148 15.0783 18.948 15.2303 18.732C15.3903 18.516 15.5143 18.284 15.6023 18.036C15.6903 17.788 15.7343 17.536 15.7343 17.28C15.7343 16.92 15.6623 16.58 15.5183 16.26C15.3743 15.94 15.1783 15.656 14.9303 15.408C14.6823 15.16 14.3943 14.964 14.0663 14.82C13.7463 14.676 13.4063 14.604 13.0463 14.604C12.6783 14.604 12.3303 14.676 12.0023 14.82C11.6743 14.964 11.3863 15.16 11.1383 15.408C10.8983 15.656 10.7063 15.94 10.5623 16.26C10.4183 16.58 10.3463 16.92 10.3463 17.28ZM19.3617 14.892V21H18.2337V13.512H19.8177L24.0657 19.596V13.512H25.2177V21H23.6937L19.3617 14.892ZM26.789 19.932H31.025C31.385 19.932 31.653 19.832 31.829 19.632C32.005 19.424 32.093 19.164 32.093 18.852C32.093 18.58 32.021 18.352 31.877 18.168C31.733 17.984 31.501 17.86 31.181 17.796V16.716C31.461 16.716 31.725 16.772 31.973 16.884C32.229 16.996 32.449 17.152 32.633 17.352C32.825 17.544 32.977 17.772 33.089 18.036C33.201 18.292 33.257 18.564 33.257 18.852C33.257 19.172 33.205 19.464 33.101 19.728C32.997 19.992 32.857 20.22 32.681 20.412C32.513 20.596 32.309 20.74 32.069 20.844C31.837 20.948 31.589 21 31.325 21H26.789V19.932ZM33.137 14.58H28.889C28.529 14.58 28.261 14.684 28.085 14.892C27.909 15.092 27.821 15.348 27.821 15.66C27.821 15.94 27.893 16.172 28.037 16.356C28.181 16.54 28.413 16.664 28.733 16.728V17.796C28.453 17.796 28.185 17.74 27.929 17.628C27.681 17.516 27.461 17.364 27.269 17.172C27.085 16.972 26.937 16.744 26.825 16.488C26.721 16.224 26.669 15.948 26.669 15.66C26.669 15.34 26.717 15.048 26.813 14.784C26.917 14.52 27.053 14.296 27.221 14.112C27.397 13.92 27.601 13.772 27.833 13.668C28.073 13.564 28.325 13.512 28.589 13.512H33.137V14.58ZM35.5182 17.28C35.5182 17.536 35.5582 17.788 35.6382 18.036C35.7262 18.284 35.8462 18.52 35.9982 18.744C36.1502 18.968 36.3302 19.172 36.5382 19.356C36.7542 19.532 36.9942 19.68 37.2582 19.8L36.5382 20.7C36.2182 20.532 35.9262 20.328 35.6622 20.088C35.3982 19.84 35.1742 19.568 34.9902 19.272C34.8062 18.976 34.6622 18.66 34.5582 18.324C34.4542 17.98 34.4022 17.628 34.4022 17.268C34.4022 16.748 34.4982 16.26 34.6902 15.804C34.8902 15.34 35.1582 14.94 35.4942 14.604C35.8382 14.26 36.2422 13.988 36.7062 13.788C37.1702 13.588 37.6702 13.488 38.2062 13.488C38.7342 13.488 39.2302 13.588 39.6942 13.788C40.1582 13.988 40.5582 14.26 40.8942 14.604C41.2382 14.94 41.5102 15.34 41.7102 15.804C41.9102 16.26 42.0102 16.748 42.0102 17.268C42.0102 17.628 41.9542 17.98 41.8422 18.324C41.7382 18.668 41.5862 18.988 41.3862 19.284C41.1862 19.58 40.9502 19.848 40.6782 20.088C40.4062 20.328 40.1022 20.532 39.7662 20.7L39.1542 19.776C39.4022 19.656 39.6342 19.508 39.8502 19.332C40.0662 19.148 40.2502 18.948 40.4022 18.732C40.5622 18.516 40.6862 18.284 40.7742 18.036C40.8622 17.788 40.9062 17.536 40.9062 17.28C40.9062 16.92 40.8342 16.58 40.6902 16.26C40.5462 15.94 40.3502 15.656 40.1022 15.408C39.8542 15.16 39.5662 14.964 39.2382 14.82C38.9182 14.676 38.5782 14.604 38.2182 14.604C37.8502 14.604 37.5022 14.676 37.1742 14.82C36.8462 14.964 36.5582 15.16 36.3102 15.408C36.0702 15.656 35.8782 15.94 35.7342 16.26C35.5902 16.58 35.5182 16.92 35.5182 17.28ZM43.3936 21H49.0936V19.932H44.5216V13.512H43.3936V21ZM50.5889 21H56.2889V19.932H51.7169V14.58H56.2889V13.512H50.5889V21ZM56.2049 16.92H52.4849V17.988H56.2049V16.92Z" fill="black"/>
</svg>
