<svg width="44" height="22" viewBox="0 0 44 22" fill="none" xmlns="http://www.w3.org/2000/svg">
<path d="M42.9732 9.12305L42.9996 12.942L31.0312 20.5845L31.0847 16.7099L42.9732 9.12305Z" stroke="black" stroke-width="1.01751" stroke-miterlimit="10" stroke-linecap="square" stroke-linejoin="round"/>
<path d="M36.9829 9.12175L34.0038 11.0153L34.0032 11.0146L30.9786 9.10451L30.9336 5.26367L36.9829 9.12175Z" stroke="black" stroke-width="1.01751" stroke-miterlimit="10" stroke-linecap="square" stroke-linejoin="round"/>
<path d="M31.0921 16.7119L31.0387 20.5866L22.0211 14.8323L19.0049 12.9076L15.997 10.9875L12.9922 9.07004V5.22656L31.0921 16.7119Z" stroke="black" stroke-width="1.01751" stroke-miterlimit="10" stroke-linecap="square" stroke-linejoin="round"/>
<path d="M30.9332 5.26367L30.9782 9.10451L27.9871 11.0127L24.9805 9.0939L30.9332 5.26367Z" stroke="black" stroke-width="1.01751" stroke-miterlimit="10" stroke-linecap="square" stroke-linejoin="round"/>
<path d="M22.0155 14.829L22.0143 14.8303L13.0406 20.5442L13.0352 16.7087L18.9993 12.9043L22.0155 14.829Z" stroke="black" stroke-width="1.01751" stroke-miterlimit="10" stroke-linecap="square" stroke-linejoin="round"/>
<path d="M13.0344 16.7089L13.0398 20.5445L1 12.8655V9.03125L13.0344 16.7089Z" stroke="black" stroke-width="1.01751" stroke-miterlimit="10" stroke-linecap="square" stroke-linejoin="round"/>
<path d="M12.9833 5.22656V9.07005L9.99281 10.9729L6.97656 9.05148L12.9833 5.22656Z" stroke="black" stroke-width="1.01751" stroke-miterlimit="10" stroke-linecap="square" stroke-linejoin="round"/>
<path d="M24.9764 9.09244L27.983 11.0112L30.9879 12.9286L33.9993 11.0145L36.9784 9.12094L30.9291 5.26222L24.9764 9.09244ZM21.9679 7.1697L30.9333 1.44658L42.9742 9.12094L31.0863 16.7104L12.987 5.22575L6.97909 9.05L9.99533 10.9727L13.0068 12.8908L15.9906 10.9867L18.9991 12.9094L13.0344 16.7138L1 9.03675L12.9402 1.41211L21.9679 7.1697Z" fill="black" stroke="black" stroke-width="1.01751" stroke-miterlimit="10" stroke-linecap="square" stroke-linejoin="round"/>
<path d="M24.97 9.09392L21.9609 7.17383" stroke="black" stroke-width="1.01751" stroke-miterlimit="10" stroke-linecap="square" stroke-linejoin="round"/>
</svg>
