<svg width="64" height="30" viewBox="0 0 64 30" fill="none" xmlns="http://www.w3.org/2000/svg">
<path d="M62.6319 12.2617L62.6705 17.8391L45.1914 29.0005L45.2694 23.3419L62.6319 12.2617Z" stroke="white" stroke-width="1.01751" stroke-miterlimit="10" stroke-linecap="square" stroke-linejoin="round"/>
<path d="M53.8698 12.2595L49.5191 15.0249L49.5182 15.024L45.1009 12.2343L45.0352 6.625L53.8698 12.2595Z" stroke="white" stroke-width="1.01751" stroke-miterlimit="10" stroke-linecap="square" stroke-linejoin="round"/>
<path d="M45.2658 23.342L45.1879 29.0007L32.0183 20.5969L27.6132 17.786L23.2204 14.9818L18.832 12.1815V6.56836L45.2658 23.342Z" stroke="white" stroke-width="1.01751" stroke-miterlimit="10" stroke-linecap="square" stroke-linejoin="round"/>
<path d="M45.0373 6.625L45.103 12.2343L40.7348 15.021L36.3438 12.2188L45.0373 6.625Z" stroke="white" stroke-width="1.01751" stroke-miterlimit="10" stroke-linecap="square" stroke-linejoin="round"/>
<path d="M32.0215 20.5961L32.0197 20.598L18.9141 28.9428L18.9062 23.3412L27.6164 17.7852L32.0215 20.5961Z" stroke="white" stroke-width="1.01751" stroke-miterlimit="10" stroke-linecap="square" stroke-linejoin="round"/>
<path d="M18.9036 23.3398L18.9115 28.9413L1.32812 17.7266V12.127L18.9036 23.3398Z" stroke="white" stroke-width="1.01751" stroke-miterlimit="10" stroke-linecap="square" stroke-linejoin="round"/>
<path d="M18.831 6.56836V12.1815L14.4636 14.9605L10.0586 12.1544L18.831 6.56836Z" stroke="white" stroke-width="1.01751" stroke-miterlimit="10" stroke-linecap="square" stroke-linejoin="round"/>
<path d="M36.3442 12.2167L40.7352 15.0189L45.1236 17.8192L49.5216 15.0237L53.8723 12.2583L45.0377 6.62285L36.3442 12.2167ZM31.9505 9.40862L45.0438 1.05034L62.629 12.2583L45.2673 23.3423L18.8344 6.56959L10.0602 12.1547L14.4653 14.9627L18.8633 17.764L23.221 14.9831L27.6147 17.7911L18.9036 23.3471L1.32812 12.1353L18.766 1L31.9505 9.40862Z" stroke="white" stroke-width="1.01751" stroke-miterlimit="10" stroke-linecap="square" stroke-linejoin="round"/>
<path d="M36.3438 12.2182L31.9492 9.41406" stroke="white" stroke-width="1.01751" stroke-miterlimit="10" stroke-linecap="square" stroke-linejoin="round"/>
</svg>
