<svg width="26" height="18" viewBox="0 0 26 18" fill="none" xmlns="http://www.w3.org/2000/svg">
<path d="M21.7712 2.02021C19.6704 0.331941 16.3485 0.045941 16.2081 0.0338076C15.9862 0.014741 15.7756 0.140408 15.6846 0.343208C15.6811 0.350141 15.4957 0.888341 15.3163 1.40747C17.7577 1.83474 19.4165 2.78287 19.5049 2.83487C19.9191 3.07581 20.0578 3.60707 19.816 4.02047C19.6557 4.29607 19.3653 4.45034 19.0672 4.45034C18.919 4.45034 18.7699 4.41307 18.633 4.33334C18.6087 4.31861 16.1751 2.93367 13.0023 2.93367C9.82852 2.93367 7.39405 4.31947 7.36979 4.33334C6.95639 4.57341 6.42599 4.43214 6.18592 4.01787C5.94585 3.60534 6.08539 3.07581 6.49792 2.83487C6.58632 2.78287 8.25119 1.83127 10.6995 1.40487C10.5106 0.879674 10.3199 0.350141 10.3165 0.343208C10.2255 0.139541 10.0149 0.0112743 9.79299 0.0338076C9.65259 0.0450743 6.33065 0.331075 4.20212 2.04274C3.08932 3.07061 0.867188 9.08007 0.867188 14.2757C0.867188 14.3676 0.890588 14.4569 0.936521 14.5366C2.47139 17.2319 6.65565 17.9374 7.60899 17.9677C7.61505 17.9686 7.62025 17.9686 7.62545 17.9686C7.79359 17.9686 7.95219 17.888 8.05185 17.7519L9.08319 16.3549C6.82119 15.8097 5.62519 14.9526 5.55325 14.8997C5.16845 14.6163 5.08525 14.0738 5.36865 13.6881C5.65119 13.3042 6.19199 13.2193 6.57679 13.5009C6.60885 13.5217 8.81625 15.067 13.0005 15.067C17.2013 15.067 19.4026 13.5157 19.4243 13.5001C19.8091 13.221 20.3516 13.3051 20.6333 13.6916C20.9141 14.0764 20.8326 14.6155 20.4495 14.898C20.3776 14.9509 19.1877 15.8063 16.9309 16.3514L17.9492 17.7511C18.0489 17.888 18.2075 17.9677 18.3756 17.9677C18.3817 17.9677 18.3869 17.9677 18.3921 17.9669C19.3463 17.9365 23.5305 17.2311 25.0645 14.5357C25.1105 14.456 25.1339 14.3667 25.1339 14.2749C25.1339 9.08007 22.9117 3.07061 21.7712 2.02021ZM9.53385 12.467C8.57619 12.467 7.80052 11.4972 7.80052 10.3003C7.80052 9.10347 8.57619 8.13367 9.53385 8.13367C10.4915 8.13367 11.2672 9.10347 11.2672 10.3003C11.2672 11.4972 10.4915 12.467 9.53385 12.467ZM16.4672 12.467C15.5095 12.467 14.7339 11.4972 14.7339 10.3003C14.7339 9.10347 15.5095 8.13367 16.4672 8.13367C17.4249 8.13367 18.2005 9.10347 18.2005 10.3003C18.2005 11.4972 17.4249 12.467 16.4672 12.467Z" fill="black"/>
</svg>
