<svg width="47" height="25" viewBox="0 0 47 25" fill="none" xmlns="http://www.w3.org/2000/svg">
<path d="M5.11163 3.5L5 3.91442V15.9389L5.11163 16.0606L10.2185 12.7613L5.11163 3.5Z" fill="#DC397A"/>
<path d="M5.10703 3.5L0 12.7613L5.10703 16.0606V10.2243V3.5Z" fill="#E781A9"/>
<path d="M5.10979 17.1179L5.04688 17.2017V21.485L5.10979 21.6858L10.2198 13.8203L5.10979 17.1179Z" fill="#DC397A"/>
<path d="M5.10703 21.6858V17.1179L0 13.8203L5.10703 21.6858Z" fill="#E781A9"/>
<path d="M5.10938 16.0609L10.2163 12.7617L5.10938 10.2246V16.0609Z" fill="#671334"/>
<path d="M0 12.7617L5.10703 16.061V10.2246L0 12.7617Z" fill="#DC397A"/>
<path d="M24.072 16.916V18.5H16.28V7.14H23.928V8.724H18.072V11.956H23.144V13.444H18.072V16.916H24.072ZM34.2566 8.724H30.4806V18.5H28.6726V8.724H24.8806V7.14H34.2566V8.724ZM45.108 7.14V18.5H43.3V13.492H37.572V18.5H35.78V7.14H37.572V11.892H43.3V7.14H45.108Z" fill="#0E0E0E"/>
</svg>
