<svg width="27" height="27" viewBox="0 0 27 27" fill="none" xmlns="http://www.w3.org/2000/svg">
<path d="M17.5369 13.7905C20.7243 13.7905 23.3081 11.2067 23.3081 8.0193C23.3081 4.83193 20.7243 2.24805 17.5369 2.24805C14.3495 2.24805 11.7656 4.83193 11.7656 8.0193C11.7656 11.2067 14.3495 13.7905 17.5369 13.7905Z" stroke="black" stroke-width="1.5" stroke-miterlimit="10"/>
<path d="M7.15248 21.8675C9.06615 21.8675 10.6175 20.3162 10.6175 18.4025C10.6175 16.4888 9.06615 14.9375 7.15248 14.9375C5.23882 14.9375 3.6875 16.4888 3.6875 18.4025C3.6875 20.3162 5.23882 21.8675 7.15248 21.8675Z" stroke="black" stroke-width="1.5" stroke-miterlimit="10"/>
<path d="M18.7003 24.7502C20.2909 24.7502 21.5803 23.4608 21.5803 21.8702C21.5803 20.2797 20.2909 18.9902 18.7003 18.9902C17.1097 18.9902 15.8203 20.2797 15.8203 21.8702C15.8203 23.4608 17.1097 24.7502 18.7003 24.7502Z" stroke="black" stroke-width="1.5" stroke-miterlimit="10"/>
</svg>
